<svg xmlns="http://www.w3.org/2000/svg" width="302.664" height="79.072" viewBox="0 0 302.664 79.072"><g id="ecco_hzt_RGB_-_white_tagline" data-name="ecco_hzt_RGB - white, tagline" transform="translate(151.332 39.536)"><g id="Group_1351" data-name="Group 1351" transform="translate(-151.332 -39.536)"><g id="Group_1346" data-name="Group 1346"><path id="Path_2606" data-name="Path 2606" d="M51.573,50.271a30.213,30.213,0,0,0,7.256,6.16l.181.106.181-.106a48.807,48.807,0,0,0,7.339-6.188c-4.08,8.729-7.513,10.45-7.513,10.45S55.147,58.929,51.573,50.271ZM59,71.071s-3.435,1.718-7.523,10.443a48.824,48.824,0,0,1,7.345-6.181L59,75.227l.181.106A30.218,30.218,0,0,1,66.431,81.5C62.865,72.838,59,71.071,59,71.071Zm-4.87-7.812s.274-3.831-5.147-11.8a48.9,48.9,0,0,1,1.572,9.47l0,.209-.183.1a30.209,30.209,0,0,1-9,3.093C50.634,65.685,54.127,63.259,54.127,63.259Zm10.025,5.315s-.277,3.831,5.136,11.8A48.842,48.842,0,0,1,67.726,70.9l0-.209.183-.1a30.236,30.236,0,0,1,9-3.085C67.647,66.15,64.152,68.574,64.152,68.574Zm-.031-5.357s3.193,2.135,12.8,1.368a48.812,48.812,0,0,1-9.006-3.323l-.181-.1,0-.209A30.23,30.23,0,0,1,69.5,51.595C63.741,58.981,64.121,63.217,64.121,63.217ZM54.168,68.54s-3.191-2.138-12.8-1.38a48.867,48.867,0,0,1,9,3.331l.181.1,0,.209a30.267,30.267,0,0,1-1.778,9.351C54.543,72.777,54.168,68.54,54.168,68.54Z" transform="translate(-24.275 -26.369)" fill="#fff"></path><path id="Path_2607" data-name="Path 2607" d="M51.691,44.254s10.854-6.3,10.854-14.059-10.854-14.06-10.854-14.06S40.837,22.43,40.837,30.2,51.691,44.254,51.691,44.254Zm0,22.833s-10.86,6.286-10.867,14.049,10.841,14.07,10.841,14.07,10.859-6.286,10.867-14.05S51.688,67.088,51.688,67.088ZM41.427,49.833s.13-12.547-6.545-16.512-17.63,2.152-17.63,2.152S17.121,48.021,23.8,51.986,41.427,49.833,41.427,49.833Zm20.77,11.7s-.141,12.547,6.53,16.518,17.633-2.137,17.633-2.137S86.5,63.371,79.829,59.4,62.2,61.537,62.2,61.537Zm.031-11.643s10.837,6.325,17.586,2.488S86.672,36,86.672,36s-10.837-6.325-17.586-2.487S62.228,49.894,62.228,49.894ZM41.405,61.39s-10.83-6.335-17.584-2.5-6.873,16.378-6.873,16.378,10.831,6.335,17.584,2.5S41.405,61.39,41.405,61.39Z" transform="translate(-16.949 -16.135)" fill="#fff"></path></g><g id="Group_1349" data-name="Group 1349" transform="translate(82.714 16.257)"><g id="Group_1347" data-name="Group 1347" transform="translate(0)"><path id="Path_2608" data-name="Path 2608" d="M163.044,75.546,167.2,79.8c-2.962,3.152-7.69,4.81-13.489,4.81-11.284,0-18.6-6.358-18.6-15.15s7.312-15.095,17.334-15.095c9.393,0,16.957,5.529,17.02,14.763l-25.782,4.424c1.639,3.372,5.3,5.2,10.212,5.2A13.091,13.091,0,0,0,163.044,75.546Zm-20.3-6.469v.055l19.037-3.207c-1.072-3.594-4.6-6.027-9.33-6.027C146.717,59.9,142.746,63.438,142.746,69.077Z" transform="translate(-135.119 -43.864)" fill="#fff"></path><path id="Path_2609" data-name="Path 2609" d="M188.794,69.465c0-8.847,7.564-15.095,18.217-15.095,6.556,0,11.788,2.377,14.372,6.856l-6.052,3.1a9.9,9.9,0,0,0-8.383-4.092c-5.8,0-10.212,3.539-10.212,9.234,0,5.751,4.413,9.234,10.212,9.234a9.9,9.9,0,0,0,8.383-4.091l6.052,3.1c-2.584,4.424-7.816,6.911-14.372,6.911C196.358,84.614,188.794,78.312,188.794,69.465Z" transform="translate(-151.224 -43.864)" fill="#fff"></path><path id="Path_2610" data-name="Path 2610" d="M237.875,69.465c0-8.847,7.565-15.095,18.218-15.095,6.555,0,11.787,2.377,14.371,6.856l-6.051,3.1a9.9,9.9,0,0,0-8.384-4.092c-5.8,0-10.212,3.539-10.212,9.234,0,5.751,4.413,9.234,10.212,9.234a9.9,9.9,0,0,0,8.384-4.091l6.051,3.1c-2.584,4.424-7.816,6.911-14.371,6.911C245.44,84.614,237.875,78.312,237.875,69.465Z" transform="translate(-165.95 -43.864)" fill="#fff"></path><path id="Path_2611" data-name="Path 2611" d="M286.958,69.465c0-8.847,7.565-15.095,17.9-15.095,10.464,0,17.966,6.248,17.966,15.095s-7.5,15.15-17.966,15.15C294.523,84.614,286.958,78.312,286.958,69.465Zm27.925,0c0-5.64-4.287-9.234-10.023-9.234-5.673,0-9.96,3.594-9.96,9.234s4.287,9.234,9.96,9.234C310.6,78.7,314.883,75.1,314.883,69.465Z" transform="translate(-180.677 -43.864)" fill="#fff"></path><path id="Path_2612" data-name="Path 2612" d="M369.847,55.791,354.97,84.654h-3.215L336.942,55.791h3.34l13.112,25.822,13.238-25.822Z" transform="translate(-195.675 -44.291)" fill="#fff"></path><path id="Path_2613" data-name="Path 2613" d="M388.457,41.628a2.451,2.451,0,0,1,2.584-2.267,2.262,2.262,0,1,1-2.584,2.267Zm1.008,9.233h3.152V79.725h-3.152Z" transform="translate(-211.132 -39.361)" fill="#fff"></path><path id="Path_2614" data-name="Path 2614" d="M426.8,66.257v18.3h-3.026V79.417c-2.08,3.318-6.114,5.364-11.851,5.364-7.375,0-11.85-3.318-11.85-8.238,0-4.368,3.152-8.073,12.292-8.073h11.283V66.147c0-5.364-3.341-8.239-9.771-8.239a18.538,18.538,0,0,0-11.347,3.65l-1.576-1.991a21.849,21.849,0,0,1,13.175-4.092C422.262,55.475,426.8,59.125,426.8,66.257Zm-3.152,9.787V70.626h-11.22c-6.808,0-9.2,2.488-9.2,5.805,0,3.761,3.34,6.083,9.14,6.083C417.912,82.514,421.757,80.192,423.648,76.045Z" transform="translate(-214.617 -44.196)" fill="#fff"></path></g><g id="Group_1348" data-name="Group 1348" transform="translate(12.4 48.114)"><path id="Path_2615" data-name="Path 2615" d="M152.834,108.231a15.129,15.129,0,0,1,1.72-.132c1.314,0,2.3.4,2.3,1.8a1.611,1.611,0,0,1-1.408,1.73c.435.851.983,1.73,1.569,2.637l-.01.019h-.813c-.539-.841-1.049-1.72-1.494-2.561a10.043,10.043,0,0,1-1.163-.057v2.618h-.7Zm1.673,2.9c.974,0,1.635-.236,1.635-1.219,0-.954-.624-1.191-1.588-1.191-.283,0-.671.019-1.021.047v2.316C153.892,111.124,154.29,111.133,154.507,111.133Z" transform="translate(-152.834 -108.099)" fill="#fff"></path><path id="Path_2616" data-name="Path 2616" d="M161.506,108.235h3.469v.615h-2.77v2.041h2.325v.6h-2.325v2.212h2.77v.615h-3.469Z" transform="translate(-155.436 -108.14)" fill="#fff"></path><path id="Path_2617" data-name="Path 2617" d="M170.776,108.235h.907c.6,1.484,1.427,4.055,1.985,6.087h-.709l-.435-1.522h-2.609l-.435,1.522h-.7C169.349,112.29,170.181,109.719,170.776,108.235Zm1.578,3.96c-.34-1.125-.718-2.25-1.116-3.337H171.2c-.4,1.088-.776,2.213-1.125,3.337Z" transform="translate(-157.619 -108.14)" fill="#fff"></path><path id="Path_2618" data-name="Path 2618" d="M178.352,108.235h.7v5.472h2.731v.615h-3.43Z" transform="translate(-160.491 -108.14)" fill="#fff"></path><path id="Path_2619" data-name="Path 2619" d="M189.724,113.572a7.835,7.835,0,0,0,1.56.189c.917,0,1.513-.321,1.513-1.115s-.6-.936-1.474-1.229c-.974-.33-1.683-.7-1.683-1.682,0-1,.728-1.636,2.089-1.636a7.778,7.778,0,0,1,1.541.19l-.113.614a7.074,7.074,0,0,0-1.446-.189c-.756,0-1.361.265-1.361.974,0,.784.718.935,1.5,1.2.879.293,1.654.633,1.654,1.739s-.775,1.748-2.24,1.748a9.244,9.244,0,0,1-1.655-.179Z" transform="translate(-163.869 -108.099)" fill="#fff"></path><path id="Path_2620" data-name="Path 2620" d="M200.162,108.1c1.758,0,2.6,1.049,2.6,3.138s-.841,3.139-2.6,3.139-2.6-1.049-2.6-3.139S198.4,108.1,200.162,108.1Zm0,5.662c1.257,0,1.891-.737,1.891-2.524s-.633-2.523-1.891-2.523-1.891.738-1.891,2.523S198.9,113.761,200.162,113.761Z" transform="translate(-166.254 -108.099)" fill="#fff"></path><path id="Path_2621" data-name="Path 2621" d="M207.941,108.235h.7v5.472h2.732v.615h-3.431Z" transform="translate(-169.369 -108.14)" fill="#fff"></path><path id="Path_2622" data-name="Path 2622" d="M215.162,108.235h.7v3.818c0,1.266.407,1.748,1.569,1.748s1.56-.482,1.56-1.748v-3.818h.69v3.9c0,1.494-.624,2.278-2.259,2.278s-2.259-.784-2.259-2.278Z" transform="translate(-171.535 -108.14)" fill="#fff"></path><path id="Path_2623" data-name="Path 2623" d="M226.051,108.85H224.2v-.615h4.4v.615H226.75v5.472h-.7Z" transform="translate(-174.246 -108.14)" fill="#fff"></path><path id="Path_2624" data-name="Path 2624" d="M233.12,108.235h.7v6.087h-.7Z" transform="translate(-176.923 -108.14)" fill="#fff"></path><path id="Path_2625" data-name="Path 2625" d="M239.685,108.1c1.758,0,2.6,1.049,2.6,3.138s-.841,3.139-2.6,3.139-2.6-1.049-2.6-3.139S237.927,108.1,239.685,108.1Zm0,5.662c1.257,0,1.89-.737,1.89-2.524s-.633-2.523-1.89-2.523-1.891.738-1.891,2.523S238.428,113.761,239.685,113.761Z" transform="translate(-178.113 -108.099)" fill="#fff"></path><path id="Path_2626" data-name="Path 2626" d="M247.463,108.235h1.04l2.94,5.245h.038v-5.245h.69v6.087h-1.039l-2.941-5.246h-.037v5.246h-.691Z" transform="translate(-181.227 -108.14)" fill="#fff"></path><path id="Path_2627" data-name="Path 2627" d="M257.033,113.572a7.828,7.828,0,0,0,1.56.189c.918,0,1.513-.321,1.513-1.115s-.6-.936-1.474-1.229c-.974-.33-1.683-.7-1.683-1.682,0-1,.728-1.636,2.089-1.636a7.778,7.778,0,0,1,1.541.19l-.113.614a7.074,7.074,0,0,0-1.447-.189c-.756,0-1.361.265-1.361.974,0,.784.718.935,1.5,1.2.878.293,1.654.633,1.654,1.739s-.776,1.748-2.24,1.748a9.237,9.237,0,0,1-1.655-.179Z" transform="translate(-184.064 -108.099)" fill="#fff"></path><path id="Path_2628" data-name="Path 2628" d="M269.761,112.119a.984.984,0,1,1,.983.955A.876.876,0,0,1,269.761,112.119Z" transform="translate(-187.917 -109.019)" fill="#fff"></path><path id="Path_2629" data-name="Path 2629" d="M280.536,108.231a15.142,15.142,0,0,1,1.72-.132c1.314,0,2.3.4,2.3,1.8a1.611,1.611,0,0,1-1.408,1.73c.435.851.983,1.73,1.569,2.637l-.008.019h-.813c-.539-.841-1.049-1.72-1.493-2.561a10.026,10.026,0,0,1-1.163-.057v2.618h-.7Zm1.673,2.9c.974,0,1.635-.236,1.635-1.219,0-.954-.623-1.191-1.588-1.191-.284,0-.671.019-1.021.047v2.316C281.594,111.124,281.992,111.133,282.209,111.133Z" transform="translate(-191.15 -108.099)" fill="#fff"></path><path id="Path_2630" data-name="Path 2630" d="M289.207,108.235h3.47v.615h-2.77v2.041h2.325v.6h-2.325v2.212h2.77v.615h-3.47Z" transform="translate(-193.752 -108.14)" fill="#fff"></path><path id="Path_2631" data-name="Path 2631" d="M298.477,108.235h.907c.6,1.484,1.427,4.055,1.985,6.087h-.708l-.435-1.522h-2.609l-.435,1.522h-.7C297.05,112.29,297.882,109.719,298.477,108.235Zm1.578,3.96c-.34-1.125-.718-2.25-1.115-3.337H298.9c-.4,1.088-.776,2.213-1.126,3.337Z" transform="translate(-195.935 -108.14)" fill="#fff"></path><path id="Path_2632" data-name="Path 2632" d="M306.053,108.235h.7v5.472h2.732v.615h-3.432Z" transform="translate(-198.807 -108.14)" fill="#fff"></path><path id="Path_2633" data-name="Path 2633" d="M317.962,108.245a13.7,13.7,0,0,1,1.711-.132c1.361,0,2.382.407,2.382,1.881,0,1.513-1.068,1.919-2.4,1.919a9.672,9.672,0,0,1-.993-.057v2.43h-.7Zm1.7,3.062c.993,0,1.683-.245,1.683-1.3,0-1.021-.643-1.276-1.683-1.276-.283,0-.671.019-1,.047v2.476A9.7,9.7,0,0,0,319.664,111.308Z" transform="translate(-202.38 -108.103)" fill="#fff"></path><path id="Path_2634" data-name="Path 2634" d="M326.452,108.235h3.469v.615h-2.769v2.041h2.325v.6h-2.325v2.212h2.769v.615h-3.469Z" transform="translate(-204.927 -108.14)" fill="#fff"></path><path id="Path_2635" data-name="Path 2635" d="M334.178,108.231a15.166,15.166,0,0,1,1.72-.132c1.314,0,2.3.4,2.3,1.8a1.61,1.61,0,0,1-1.408,1.73c.435.851.983,1.73,1.569,2.637l-.009.019h-.813c-.538-.841-1.049-1.72-1.493-2.561a10.026,10.026,0,0,1-1.163-.057v2.618h-.7Zm1.674,2.9c.973,0,1.635-.236,1.635-1.219,0-.954-.624-1.191-1.588-1.191-.284,0-.671.019-1.021.047v2.316C335.237,111.124,335.634,111.133,335.852,111.133Z" transform="translate(-207.245 -108.099)" fill="#fff"></path><path id="Path_2636" data-name="Path 2636" d="M342.641,113.572a7.821,7.821,0,0,0,1.559.189c.918,0,1.513-.321,1.513-1.115s-.605-.936-1.475-1.229c-.974-.33-1.683-.7-1.683-1.682,0-1,.728-1.636,2.089-1.636a7.778,7.778,0,0,1,1.541.19l-.113.614a7.074,7.074,0,0,0-1.446-.189c-.756,0-1.361.265-1.361.974,0,.784.718.935,1.5,1.2.879.293,1.654.633,1.654,1.739s-.775,1.748-2.24,1.748a9.229,9.229,0,0,1-1.654-.179Z" transform="translate(-209.751 -108.099)" fill="#fff"></path><path id="Path_2637" data-name="Path 2637" d="M353.079,108.1c1.758,0,2.6,1.049,2.6,3.138s-.841,3.139-2.6,3.139-2.6-1.049-2.6-3.139S351.32,108.1,353.079,108.1Zm0,5.662c1.257,0,1.89-.737,1.89-2.524s-.633-2.523-1.89-2.523-1.891.738-1.891,2.523S351.822,113.761,353.079,113.761Z" transform="translate(-212.136 -108.099)" fill="#fff"></path><path id="Path_2638" data-name="Path 2638" d="M360.858,108.235H361.9l2.94,5.245h.038v-5.245h.69v6.087h-1.039l-2.94-5.246h-.038v5.246h-.69Z" transform="translate(-215.251 -108.14)" fill="#fff"></path><path id="Path_2639" data-name="Path 2639" d="M375.495,108.235h.7v6.087h-.7Z" transform="translate(-219.642 -108.14)" fill="#fff"></path><path id="Path_2640" data-name="Path 2640" d="M380.011,108.235h1.011l1.6,4.215h.037l1.588-4.215h1.011c.122,1.436.255,4.083.311,6.087h-.7c-.047-1.711-.122-3.459-.217-5.255h-.038l-1.606,4.235h-.766l-1.606-4.235H380.6c-.094,1.8-.161,3.545-.218,5.255h-.68C379.757,112.318,379.888,109.671,380.011,108.235Z" transform="translate(-220.904 -108.14)" fill="#fff"></path><path id="Path_2641" data-name="Path 2641" d="M391.3,108.245a13.7,13.7,0,0,1,1.711-.132c1.361,0,2.382.407,2.382,1.881,0,1.513-1.069,1.919-2.4,1.919a9.672,9.672,0,0,1-.993-.057v2.43h-.7Zm1.7,3.062c.993,0,1.683-.245,1.683-1.3,0-1.021-.643-1.276-1.683-1.276-.283,0-.671.019-1,.047v2.476A9.7,9.7,0,0,0,393.006,111.308Z" transform="translate(-224.386 -108.103)" fill="#fff"></path><path id="Path_2642" data-name="Path 2642" d="M400.524,108.235h.907c.6,1.484,1.427,4.055,1.985,6.087h-.708l-.435-1.522h-2.609l-.435,1.522h-.7C399.1,112.29,399.929,109.719,400.524,108.235Zm1.578,3.96c-.34-1.125-.718-2.25-1.115-3.337h-.038c-.4,1.088-.776,2.213-1.126,3.337Z" transform="translate(-226.554 -108.14)" fill="#fff"></path><path id="Path_2643" data-name="Path 2643" d="M407.425,111.237c0-1.748.568-3.138,2.647-3.138a7.821,7.821,0,0,1,1.474.17l-.1.6a7.971,7.971,0,0,0-1.38-.16c-1.625,0-1.928,1.182-1.928,2.523,0,1.257.265,2.524,1.844,2.524a4.476,4.476,0,0,0,1.588-.339l.227.557a4.455,4.455,0,0,1-1.835.4C408,114.375,407.425,113,407.425,111.237Z" transform="translate(-229.223 -108.099)" fill="#fff"></path><path id="Path_2644" data-name="Path 2644" d="M417.539,108.85h-1.852v-.615h4.4v.615h-1.853v5.472h-.7Z" transform="translate(-231.702 -108.14)" fill="#fff"></path></g></g><g id="Group_1350" data-name="Group 1350" transform="translate(296.239 27.13)"><path id="Path_2645" data-name="Path 2645" d="M446.6,58.089a3.212,3.212,0,1,1-3.2-3.194A3.133,3.133,0,0,1,446.6,58.089Zm-.428,0A2.71,2.71,0,0,0,443.4,55.3a2.8,2.8,0,1,0,2.775,2.784Zm-1.912.555.829,1.283h-.629l-.755-1.165h-.992v1.165h-.619v-3.64h1.457c.909,0,1.474.482,1.474,1.238A1.112,1.112,0,0,1,444.261,58.644Zm.165-1.119c0-.464-.337-.719-.92-.719h-.8v1.447h.8C444.088,58.253,444.425,57.989,444.425,57.525Z" transform="translate(-440.175 -54.895)" fill="#fff"></path></g></g></g></svg>
